<svg width="1200" height="675" viewBox="0 0 1200 675" xmlns="http://www.w3.org/2000/svg">
  <rect width="1200" height="675" fill="#0d1117" rx="12"/>
  <defs>
    <linearGradient id="g1" x1="0%" y1="0%" x2="100%" y2="100%">
      <stop offset="0%" stop-color="#1a1f2e" stop-opacity="0.6"/>
      <stop offset="100%" stop-color="#0d1117" stop-opacity="0.8"/>
    </linearGradient>
    <linearGradient id="gg" x1="0%" y1="0%" x2="100%" y2="0%">
      <stop offset="0%" stop-color="#22c55e"/>
      <stop offset="100%" stop-color="#16a34a"/>
    </linearGradient>
    <linearGradient id="gr" x1="0%" y1="0%" x2="100%" y2="0%">
      <stop offset="0%" stop-color="#ef4444"/>
      <stop offset="100%" stop-color="#dc2626"/>
    </linearGradient>
    <linearGradient id="gy" x1="0%" y1="0%" x2="100%" y2="0%">
      <stop offset="0%" stop-color="#eab308"/>
      <stop offset="100%" stop-color="#ca8a04"/>
    </linearGradient>
  </defs>
  <rect width="1200" height="675" fill="url(#g1)" rx="12"/>
  <text x="40" y="50" fill="#e6edf3" font-family="sans-serif" font-size="22" font-weight="bold">System Architecture</text>
  <text x="40" y="78" fill="#8b949e" font-family="monospace" font-size="12">Next.js 16 Monolith · 14 Routes · 9 AI Providers · 2 Data Sources</text>

  <!-- Client box -->
  <rect x="80" y="110" width="280" height="120" fill="#1a1f2e" rx="12" stroke="#2563eb" stroke-width="1.5"/>
  <text x="120" y="140" fill="#2563eb" font-family="sans-serif" font-size="14" font-weight="bold">Client Browser</text>
  <text x="100" y="165" fill="#8b949e" font-family="monospace" font-size="11">• React 19 / Tailwind v4</text>
  <text x="100" y="182" fill="#8b949e" font-family="monospace" font-size="11">• Lightweight Charts v5</text>
  <text x="100" y="199" fill="#8b949e" font-family="monospace" font-size="11">• Zustand Stores</text>
  <text x="100" y="216" fill="#8b949e" font-family="monospace" font-size="11">• Web Crypto Encryption</text>

  <!-- Arrow -->
  <line x1="360" y1="170" x2="430" y2="170" stroke="#22c55e" stroke-width="2" stroke-dasharray="6,3"/>
  <polygon points="430,165 445,170 430,175" fill="#22c55e"/>

  <!-- Vercel box -->
  <rect x="450" y="110" width="300" height="120" fill="#1a1f2e" rx="12" stroke="#22c55e" stroke-width="1.5"/>
  <text x="490" y="140" fill="#22c55e" font-family="sans-serif" font-size="14" font-weight="bold">Vercel (Edge/Serverless)</text>
  <text x="470" y="165" fill="#8b949e" font-family="monospace" font-size="11">• Next.js 16 API Routes</text>
  <text x="470" y="182" fill="#8b949e" font-family="monospace" font-size="11">• Built-in AI (xsmodel)</text>
  <text x="470" y="199" fill="#8b949e" font-family="monospace" font-size="11">• Stock Proxy API</text>
  <text x="470" y="216" fill="#8b949e" font-family="monospace" font-size="11">• SSE Streaming</text>

  <!-- Arrow down -->
  <line x1="600" y1="230" x2="600" y2="290" stroke="#eab308" stroke-width="2"/>
  <polygon points="595,290 600,305 605,290" fill="#eab308"/>

  <!-- Data sources row -->
  <rect x="80" y="310" width="440" height="100" fill="#1a1f2e" rx="12" stroke="#eab308" stroke-width="1.5"/>
  <text x="120" y="340" fill="#eab308" font-family="sans-serif" font-size="14" font-weight="bold">Data Sources</text>
  <rect x="100" y="355" width="190" height="40" fill="#1f2937" rx="8" stroke="#2d333b"/>
  <text x="120" y="380" fill="#f97316" font-family="monospace" font-size="11">Binance API (Crypto)</text>
  <rect x="310" y="355" width="190" height="40" fill="#1f2937" rx="8" stroke="#2d333b"/>
  <text x="330" y="380" fill="#4285f4" font-family="monospace" font-size="11">Yahoo Finance (Stocks)</text>

  <!-- Arrow right -->
  <line x1="520" y1="360" x2="580" y2="360" stroke="#eab308" stroke-width="2" stroke-dasharray="6,3"/>
  <polygon points="580,355 595,360 580,365" fill="#eab308"/>

  <!-- Storage box -->
  <rect x="600" y="310" width="280" height="100" fill="#1a1f2e" rx="12" stroke="#a78bfa" stroke-width="1.5"/>
  <text x="640" y="340" fill="#a78bfa" font-family="sans-serif" font-size="14" font-weight="bold">Client Storage</text>
  <text x="620" y="365" fill="#8b949e" font-family="monospace" font-size="11">• Encrypted localStorage</text>
  <text x="620" y="382" fill="#8b949e" font-family="monospace" font-size="11">• Zustand Persist</text>
  <text x="620" y="399" fill="#8b949e" font-family="monospace" font-size="11">• No Database Required</text>

  <!-- AI Providers row -->
  <rect x="80" y="440" width="1120" height="80" fill="#1a1f2e" rx="12" stroke="#22c55e" stroke-width="1.5"/>
  <text x="120" y="470" fill="#22c55e" font-family="sans-serif" font-size="14" font-weight="bold">AI Providers</text>
  <rect x="240" y="455" width="110" height="30" fill="#0d1117" rx="6" stroke="#10a37f"/>
  <text x="260" y="475" fill="#10a37f" font-family="monospace" font-size="10">OpenAI</text>
  <rect x="360" y="455" width="110" height="30" fill="#0d1117" rx="6" stroke="#d97706"/>
  <text x="380" y="475" fill="#d97706" font-family="monospace" font-size="10">Anthropic</text>
  <rect x="480" y="455" width="110" height="30" fill="#0d1117" rx="6" stroke="#4285f4"/>
  <text x="500" y="475" fill="#4285f4" font-family="monospace" font-size="10">Google</text>
  <rect x="600" y="455" width="90" height="30" fill="#0d1117" rx="6" stroke="#f97316"/>
  <text x="618" y="475" fill="#f97316" font-family="monospace" font-size="10">Groq</text>
  <rect x="700" y="455" width="120" height="30" fill="#0d1117" rx="6" stroke="#8b5cf6"/>
  <text x="718" y="475" fill="#8b5cf6" font-family="monospace" font-size="10">OpenRouter</text>
  <rect x="830" y="455" width="90" height="30" fill="#0d1117" rx="6" stroke="#ec4899"/>
  <text x="848" y="475" fill="#ec4899" font-family="monospace" font-size="10">Ollama</text>
  <rect x="930" y="455" width="90" height="30" fill="#0d1117" rx="6" stroke="#76b900"/>
  <text x="948" y="475" fill="#76b900" font-family="monospace" font-size="10">NVIDIA</text>
  <rect x="1030" y="455" width="100" height="30" fill="#0d1117" rx="6" stroke="#4f46e5"/>
  <text x="1048" y="475" fill="#4f46e5" font-family="monospace" font-size="10">DeepSeek</text>
  <rect x="1140" y="455" width="100" height="30" fill="#0d1117" rx="6" stroke="#22c55e"/>
  <text x="1158" y="475" fill="#22c55e" font-family="monospace" font-size="10">Built-in AI</text>

  <!-- Data flow arrows -->
  <line x1="220" y1="230" x2="220" y2="310" stroke="#8b949e" stroke-width="1" stroke-dasharray="4,2"/>
  <line x1="220" y1="310" x2="195" y2="310" stroke="#8b949e" stroke-width="1" stroke-dasharray="4,2"/>
  <polygon points="195,305 185,310 195,315" fill="#8b949e"/>

  <line x1="750" y1="230" x2="750" y2="310" stroke="#8b949e" stroke-width="1" stroke-dasharray="4,2"/>
  <line x1="750" y1="310" x2="740" y2="310" stroke="#8b949e" stroke-width="1" stroke-dasharray="4,2"/>
  <polygon points="740,305 730,310 740,315" fill="#8b949e"/>

  <rect x="0" y="627" width="1200" height="48" fill="#161b22" opacity="0.9"/>
  <text x="24" y="657" fill="#8b949e" font-family="monospace" font-size="13">XS TRADER v2.0</text>
  <text x="250" y="657" fill="#8b949e" font-family="monospace" font-size="13">Paper Trading Simulator</text>
  <text x="1176" y="657" fill="#8b949e" font-family="monospace" font-size="13" text-anchor="end">$10,000 Virtual Portfolio</text>
  </svg>