<svg width="1200" height="675" viewBox="0 0 1200 675" xmlns="http://www.w3.org/2000/svg">
  <rect width="1200" height="675" fill="#0d1117" rx="12"/>
  <defs>
    <linearGradient id="g1" x1="0%" y1="0%" x2="100%" y2="100%">
      <stop offset="0%" stop-color="#1a1f2e" stop-opacity="0.6"/>
      <stop offset="100%" stop-color="#0d1117" stop-opacity="0.8"/>
    </linearGradient>
    <linearGradient id="gg" x1="0%" y1="0%" x2="100%" y2="0%">
      <stop offset="0%" stop-color="#22c55e"/>
      <stop offset="100%" stop-color="#16a34a"/>
    </linearGradient>
    <linearGradient id="gr" x1="0%" y1="0%" x2="100%" y2="0%">
      <stop offset="0%" stop-color="#ef4444"/>
      <stop offset="100%" stop-color="#dc2626"/>
    </linearGradient>
    <linearGradient id="gy" x1="0%" y1="0%" x2="100%" y2="0%">
      <stop offset="0%" stop-color="#eab308"/>
      <stop offset="100%" stop-color="#ca8a04"/>
    </linearGradient>
  </defs>
  <rect width="1200" height="675" fill="url(#g1)" rx="12"/>
  <defs>
    <filter id="blur"><feGaussianBlur stdDeviation="20"/></filter>
  </defs>
  <circle cx="200" cy="180" r="80" fill="#22c55e" opacity="0.15" filter="url(#blur)"/>
  <circle cx="600" cy="250" r="60" fill="#eab308" opacity="0.15" filter="url(#blur)"/>
  <line x1="0" y1="100" x2="1200" y2="100" stroke="#1f2937" stroke-width="0.5"/>
  <line x1="0" y1="200" x2="1200" y2="200" stroke="#1f2937" stroke-width="0.5"/>
  <line x1="0" y1="300" x2="1200" y2="300" stroke="#1f2937" stroke-width="0.5"/>
  <line x1="0" y1="400" x2="1200" y2="400" stroke="#1f2937" stroke-width="0.5"/>
  <line x1="0" y1="500" x2="1200" y2="500" stroke="#1f2937" stroke-width="0.5"/>

  <text x="40" y="50" fill="#e6edf3" font-family="sans-serif" font-size="28" font-weight="bold">XS TRADER</text>
  <text x="40" y="78" fill="#8b949e" font-family="sans-serif" font-size="14">AI-Powered Paper Trading Simulator</text>

  <rect x="40" y="110" width="260" height="130" fill="#1a1f2e" rx="10" stroke="#2d333b" stroke-width="1"/>
  <text x="60" y="140" fill="#8b949e" font-family="monospace" font-size="12">PORTFOLIO VALUE</text>
  <text x="60" y="175" fill="#22c55e" font-family="monospace" font-size="32" font-weight="bold">$10,452.80</text>
  <text x="60" y="200" fill="#22c55e" font-family="monospace" font-size="14">+$452.80 (+4.53%)</text>
  <text x="220" y="200" fill="#8b949e" font-family="monospace" font-size="11">24h</text>

  <rect x="320" y="110" width="260" height="130" fill="#1a1f2e" rx="10" stroke="#2d333b" stroke-width="1"/>
  <text x="340" y="140" fill="#8b949e" font-family="monospace" font-size="12">OPEN POSITIONS</text>
  <text x="340" y="175" fill="#e6edf3" font-family="monospace" font-size="32" font-weight="bold">4</text>
  <text x="340" y="200" fill="#eab308" font-family="monospace" font-size="14">2 Profitable · 2 Losing</text>

  <rect x="600" y="110" width="260" height="130" fill="#1a1f2e" rx="10" stroke="#2d333b" stroke-width="1"/>
  <text x="620" y="140" fill="#8b949e" font-family="monospace" font-size="12">WIN RATE</text>
  <text x="620" y="175" fill="#22c55e" font-family="monospace" font-size="32" font-weight="bold">68.5%</text>
  <text x="620" y="200" fill="#8b949e" font-family="monospace" font-size="14">Total Trades: 124</text>

  <rect x="880" y="110" width="280" height="130" fill="#1a1f2e" rx="10" stroke="#2d333b" stroke-width="1"/>
  <text x="900" y="140" fill="#8b949e" font-family="monospace" font-size="12">BEST PERFORMER</text>
  <text x="900" y="175" fill="#22c55e" font-family="monospace" font-size="24" font-weight="bold">SOLUSDT</text>
  <text x="900" y="200" fill="#22c55e" font-family="monospace" font-size="14">+32.4%</text>

  <rect x="40" y="260" width="500" height="200" fill="#1a1f2e" rx="10" stroke="#2d333b" stroke-width="1"/>
  <text x="60" y="290" fill="#8b949e" font-family="monospace" font-size="12">EQUITY CURVE (Last 30 Days)</text>
  <polyline points="60,430 100,420 140,410 180,415 220,400 260,390 300,395 340,380 380,370 420,360 460,350 500,340" fill="none" stroke="#22c55e" stroke-width="2.5"/>
  <polyline points="60,440 100,435 140,430 180,432 220,425 260,420 300,422 340,415 380,410 420,405 460,400 500,395" fill="none" stroke="#22c55e" stroke-width="1" opacity="0.4"/>
  <polyline points="60,420 100,415 140,410 180,412 220,405 260,400 300,402 340,395 380,390 420,385 460,380 500,375" fill="none" stroke="#22c55e" stroke-width="1" opacity="0.4"/>
  <rect x="60" y="430" width="440" height="1" fill="#2d333b"/>
  <text x="60" y="452" fill="#8b949e" font-family="monospace" font-size="10">$9,800</text>
  <text x="240" y="452" fill="#8b949e" font-family="monospace" font-size="10">$10,150</text>
  <text x="460" y="452" fill="#8b949e" font-family="monospace" font-size="10">$10,452</text>

  <rect x="560" y="260" width="600" height="200" fill="#1a1f2e" rx="10" stroke="#2d333b" stroke-width="1"/>
  <text x="580" y="290" fill="#8b949e" font-family="monospace" font-size="12">HOLDINGS</text>
  <line x1="580" y1="302" x2="1140" y2="302" stroke="#2d333b" stroke-width="1"/>
  <text x="580" y="320" fill="#8b949e" font-family="monospace" font-size="11">SYMBOL</text>
  <text x="700" y="320" fill="#8b949e" font-family="monospace" font-size="11">QTY</text>
  <text x="800" y="320" fill="#8b949e" font-family="monospace" font-size="11">AVG</text>
  <text x="920" y="320" fill="#8b949e" font-family="monospace" font-size="11">MARKET</text>
  <text x="1040" y="320" fill="#8b949e" font-family="monospace" font-size="11">P&L</text>
  <line x1="580" y1="328" x2="1140" y2="328" stroke="#2d333b" stroke-width="0.5"/>

  <text x="580" y="350" fill="#e6edf3" font-family="monospace" font-size="13">BTCUSDT</text>
  <text x="700" y="350" fill="#e6edf3" font-family="monospace" font-size="13">0.15</text>
  <text x="800" y="350" fill="#e6edf3" font-family="monospace" font-size="13">64,200</text>
  <text x="920" y="350" fill="#22c55e" font-family="monospace" font-size="13">67,452</text>
  <text x="1040" y="350" fill="#22c55e" font-family="monospace" font-size="13">+$487.80</text>
  <line x1="580" y1="358" x2="1140" y2="358" stroke="#2d333b" stroke-width="0.3"/>

  <text x="580" y="378" fill="#e6edf3" font-family="monospace" font-size="13">ETHUSDT</text>
  <text x="700" y="378" fill="#e6edf3" font-family="monospace" font-size="13">2.50</text>
  <text x="800" y="378" fill="#e6edf3" font-family="monospace" font-size="13">3,120</text>
  <text x="920" y="378" fill="#ef4444" font-family="monospace" font-size="13">3,045</text>
  <text x="1040" y="378" fill="#ef4444" font-family="monospace" font-size="13">-$187.50</text>
  <line x1="580" y1="386" x2="1140" y2="386" stroke="#2d333b" stroke-width="0.3"/>

  <text x="580" y="406" fill="#e6edf3" font-family="monospace" font-size="13">SOLUSDT</text>
  <text x="700" y="406" fill="#e6edf3" font-family="monospace" font-size="13">8.00</text>
  <text x="800" y="406" fill="#e6edf3" font-family="monospace" font-size="13">142.50</text>
  <text x="920" y="406" fill="#22c55e" font-family="monospace" font-size="13">188.70</text>
  <text x="1040" y="406" fill="#22c55e" font-family="monospace" font-size="13">+$369.60</text>

  <rect x="0" y="627" width="1200" height="48" fill="#161b22" opacity="0.9"/>
  <text x="24" y="657" fill="#8b949e" font-family="monospace" font-size="13">XS TRADER v2.0</text>
  <text x="250" y="657" fill="#8b949e" font-family="monospace" font-size="13">Paper Trading Simulator</text>
  <text x="1176" y="657" fill="#8b949e" font-family="monospace" font-size="13" text-anchor="end">$10,000 Virtual Portfolio</text>
  </svg>