<svg width="1200" height="675" viewBox="0 0 1200 675" xmlns="http://www.w3.org/2000/svg">
  <rect width="1200" height="675" fill="#0d1117" rx="12"/>
  <defs>
    <linearGradient id="g1" x1="0%" y1="0%" x2="100%" y2="100%">
      <stop offset="0%" stop-color="#1a1f2e" stop-opacity="0.6"/>
      <stop offset="100%" stop-color="#0d1117" stop-opacity="0.8"/>
    </linearGradient>
    <linearGradient id="gg" x1="0%" y1="0%" x2="100%" y2="0%">
      <stop offset="0%" stop-color="#22c55e"/>
      <stop offset="100%" stop-color="#16a34a"/>
    </linearGradient>
    <linearGradient id="gr" x1="0%" y1="0%" x2="100%" y2="0%">
      <stop offset="0%" stop-color="#ef4444"/>
      <stop offset="100%" stop-color="#dc2626"/>
    </linearGradient>
    <linearGradient id="gy" x1="0%" y1="0%" x2="100%" y2="0%">
      <stop offset="0%" stop-color="#eab308"/>
      <stop offset="100%" stop-color="#ca8a04"/>
    </linearGradient>
  </defs>
  <rect width="1200" height="675" fill="url(#g1)" rx="12"/>
  <text x="40" y="50" fill="#e6edf3" font-family="sans-serif" font-size="22" font-weight="bold">Crypto Market Heatmap</text>
  <text x="40" y="78" fill="#8b949e" font-family="monospace" font-size="12">Real-time market overview · Green = Bullish · Red = Bearish · Size = Market Cap</text>

  <rect x="40" y="100" width="503.99999999999994" height="60" fill="#1fc156" rx="6" fill-opacity="0.85"/>
    <text x="52" y="126" fill="#fff" font-family="sans-serif" font-size="15" font-weight="bold">BTC</text>
    <text x="52" y="146" fill="#fff" font-family="monospace" font-size="13" opacity="0.9">+2.34%</text>
<rect x="250" y="100" width="392" height="60" fill="#3b3e3e" rx="6" fill-opacity="0.85"/>
    <text x="262" y="126" fill="#fff" font-family="sans-serif" font-size="15" font-weight="bold">ETH</text>
    <text x="262" y="146" fill="#fff" font-family="monospace" font-size="13" opacity="0.9">-1.2%</text>
<rect x="460" y="100" width="308" height="60" fill="#1bbb4b" rx="6" fill-opacity="0.85"/>
    <text x="472" y="126" fill="#fff" font-family="sans-serif" font-size="15" font-weight="bold">SOL</text>
    <text x="472" y="146" fill="#fff" font-family="monospace" font-size="13" opacity="0.9">+5.68%</text>
<rect x="670" y="100" width="280" height="60" fill="#21c45b" rx="6" fill-opacity="0.85"/>
    <text x="682" y="126" fill="#fff" font-family="sans-serif" font-size="15" font-weight="bold">BNB</text>
    <text x="682" y="146" fill="#fff" font-family="monospace" font-size="13" opacity="0.9">+0.85%</text>
<rect x="880" y="100" width="251.99999999999997" height="60" fill="#294343" rx="6" fill-opacity="0.85"/>
    <text x="892" y="126" fill="#fff" font-family="sans-serif" font-size="15" font-weight="bold">XRP</text>
    <text x="892" y="146" fill="#fff" font-family="monospace" font-size="13" opacity="0.9">-0.32%</text>
<rect x="40" y="300" width="237.99999999999997" height="60" fill="#20c258" rx="6" fill-opacity="0.85"/>
    <text x="52" y="326" fill="#fff" font-family="sans-serif" font-size="15" font-weight="bold">ADA</text>
    <text x="52" y="346" fill="#fff" font-family="monospace" font-size="13" opacity="0.9">+1.75%</text>
<rect x="250" y="300" width="224" height="60" fill="#4d3a3a" rx="6" fill-opacity="0.85"/>
    <text x="262" y="326" fill="#fff" font-family="sans-serif" font-size="15" font-weight="bold">DOGE</text>
    <text x="262" y="346" fill="#fff" font-family="monospace" font-size="13" opacity="0.9">-2.1%</text>
<rect x="460" y="300" width="196" height="60" fill="#1ebf52" rx="6" fill-opacity="0.85"/>
    <text x="472" y="326" fill="#fff" font-family="sans-serif" font-size="15" font-weight="bold">DOT</text>
    <text x="472" y="346" fill="#fff" font-family="monospace" font-size="13" opacity="0.9">+3.45%</text>
<rect x="670" y="300" width="182" height="60" fill="#21c35a" rx="6" fill-opacity="0.85"/>
    <text x="682" y="326" fill="#fff" font-family="sans-serif" font-size="15" font-weight="bold">AVAX</text>
    <text x="682" y="346" fill="#fff" font-family="monospace" font-size="13" opacity="0.9">+1.22%</text>
<rect x="880" y="300" width="168" height="60" fill="#354040" rx="6" fill-opacity="0.85"/>
    <text x="892" y="326" fill="#fff" font-family="sans-serif" font-size="15" font-weight="bold">LINK</text>
    <text x="892" y="346" fill="#fff" font-family="monospace" font-size="13" opacity="0.9">-0.95%</text>
<rect x="40" y="420" width="154" height="60" fill="#1fc157" rx="6" fill-opacity="0.85"/>
    <text x="52" y="446" fill="#fff" font-family="sans-serif" font-size="15" font-weight="bold">MATIC</text>
    <text x="52" y="466" fill="#fff" font-family="monospace" font-size="13" opacity="0.9">+2.1%</text>
<rect x="250" y="420" width="140" height="60" fill="#2b4242" rx="6" fill-opacity="0.85"/>
    <text x="262" y="446" fill="#fff" font-family="sans-serif" font-size="15" font-weight="bold">ATOM</text>
    <text x="262" y="466" fill="#fff" font-family="monospace" font-size="13" opacity="0.9">-0.45%</text>
<rect x="460" y="420" width="134.39999999999998" height="60" fill="#22c45d" rx="6" fill-opacity="0.85"/>
    <text x="472" y="446" fill="#fff" font-family="sans-serif" font-size="15" font-weight="bold">UNI</text>
    <text x="472" y="466" fill="#fff" font-family="monospace" font-size="13" opacity="0.9">+0.3%</text>
<rect x="670" y="420" width="125.99999999999999" height="60" fill="#473c3c" rx="6" fill-opacity="0.85"/>
    <text x="682" y="446" fill="#fff" font-family="sans-serif" font-size="15" font-weight="bold">LTC</text>
    <text x="682" y="466" fill="#fff" font-family="monospace" font-size="13" opacity="0.9">-1.8%</text>
<rect x="880" y="420" width="117.6" height="60" fill="#1dbe50" rx="6" fill-opacity="0.85"/>
    <text x="892" y="446" fill="#fff" font-family="sans-serif" font-size="15" font-weight="bold">FIL</text>
    <text x="892" y="466" fill="#fff" font-family="monospace" font-size="13" opacity="0.9">+4.2%</text>
<rect x="40" y="500" width="112" height="60" fill="#1ec053" rx="6" fill-opacity="0.85"/>
    <text x="52" y="526" fill="#fff" font-family="sans-serif" font-size="15" font-weight="bold">NEAR</text>
    <text x="52" y="546" fill="#fff" font-family="monospace" font-size="13" opacity="0.9">+3.1%</text>
<rect x="250" y="500" width="106.39999999999999" height="60" fill="#2e4141" rx="6" fill-opacity="0.85"/>
    <text x="262" y="526" fill="#fff" font-family="sans-serif" font-size="15" font-weight="bold">APT</text>
    <text x="262" y="546" fill="#fff" font-family="monospace" font-size="13" opacity="0.9">-0.6%</text>
<rect x="460" y="500" width="100.8" height="60" fill="#20c259" rx="6" fill-opacity="0.85"/>
    <text x="472" y="526" fill="#fff" font-family="sans-serif" font-size="15" font-weight="bold">ARB</text>
    <text x="472" y="546" fill="#fff" font-family="monospace" font-size="13" opacity="0.9">+1.5%</text>
<rect x="670" y="500" width="95.19999999999999" height="60" fill="#553939" rx="6" fill-opacity="0.85"/>
    <text x="682" y="526" fill="#fff" font-family="sans-serif" font-size="15" font-weight="bold">OP</text>
    <text x="682" y="546" fill="#fff" font-family="monospace" font-size="13" opacity="0.9">-2.5%</text>
<rect x="880" y="500" width="89.6" height="60" fill="#1ab947" rx="6" fill-opacity="0.85"/>
    <text x="892" y="526" fill="#fff" font-family="sans-serif" font-size="15" font-weight="bold">SUI</text>
    <text x="892" y="546" fill="#fff" font-family="monospace" font-size="13" opacity="0.9">+6.8%</text>

  <rect x="0" y="627" width="1200" height="48" fill="#161b22" opacity="0.9"/>
  <text x="24" y="657" fill="#8b949e" font-family="monospace" font-size="13">XS TRADER v2.0</text>
  <text x="250" y="657" fill="#8b949e" font-family="monospace" font-size="13">Paper Trading Simulator</text>
  <text x="1176" y="657" fill="#8b949e" font-family="monospace" font-size="13" text-anchor="end">$10,000 Virtual Portfolio</text>
  </svg>