<svg width="1200" height="675" viewBox="0 0 1200 675" xmlns="http://www.w3.org/2000/svg">
  <rect width="1200" height="675" fill="#0d1117" rx="12"/>
  <defs>
    <linearGradient id="g1" x1="0%" y1="0%" x2="100%" y2="100%">
      <stop offset="0%" stop-color="#1a1f2e" stop-opacity="0.6"/>
      <stop offset="100%" stop-color="#0d1117" stop-opacity="0.8"/>
    </linearGradient>
    <linearGradient id="gg" x1="0%" y1="0%" x2="100%" y2="0%">
      <stop offset="0%" stop-color="#22c55e"/>
      <stop offset="100%" stop-color="#16a34a"/>
    </linearGradient>
    <linearGradient id="gr" x1="0%" y1="0%" x2="100%" y2="0%">
      <stop offset="0%" stop-color="#ef4444"/>
      <stop offset="100%" stop-color="#dc2626"/>
    </linearGradient>
    <linearGradient id="gy" x1="0%" y1="0%" x2="100%" y2="0%">
      <stop offset="0%" stop-color="#eab308"/>
      <stop offset="100%" stop-color="#ca8a04"/>
    </linearGradient>
  </defs>
  <rect width="1200" height="675" fill="url(#g1)" rx="12"/>
  <defs><filter id="blur4"><feGaussianBlur stdDeviation="10"/></filter></defs>

  <text x="40" y="50" fill="#e6edf3" font-family="sans-serif" font-size="22" font-weight="bold">Portfolio Performance</text>
  <text x="40" y="78" fill="#8b949e" font-family="monospace" font-size="12">Track your paper trading performance · P&L · Win rate · Metrics</text>

  <!-- Stats cards -->
  <rect x="40" y="105" width="170" height="100" fill="#1a1f2e" rx="10" stroke="#2d333b" stroke-width="1"/>
  <text x="62" y="132" fill="#8b949e" font-family="monospace" font-size="11">TOTAL P&L</text>
  <text x="62" y="162" fill="#22c55e" font-family="monospace" font-size="24" font-weight="bold">+$452.80</text>
  <text x="62" y="182" fill="#22c55e" font-family="monospace" font-size="12">+4.53%</text>

  <rect x="230" y="105" width="170" height="100" fill="#1a1f2e" rx="10" stroke="#2d333b" stroke-width="1"/>
  <text x="252" y="132" fill="#8b949e" font-family="monospace" font-size="11">WIN RATE</text>
  <text x="252" y="162" fill="#eab308" font-family="monospace" font-size="24" font-weight="bold">68.5%</text>
  <text x="252" y="182" fill="#8b949e" font-family="monospace" font-size="12">85 Wins / 124 Total</text>

  <rect x="420" y="105" width="170" height="100" fill="#1a1f2e" rx="10" stroke="#2d333b" stroke-width="1"/>
  <text x="442" y="132" fill="#8b949e" font-family="monospace" font-size="11">BEST TRADE</text>
  <text x="442" y="162" fill="#22c55e" font-family="monospace" font-size="20" font-weight="bold">+$487.80</text>
  <text x="442" y="182" fill="#8b949e" font-family="monospace" font-size="12">BTCUSDT Long</text>

  <rect x="610" y="105" width="170" height="100" fill="#1a1f2e" rx="10" stroke="#2d333b" stroke-width="1"/>
  <text x="632" y="132" fill="#8b949e" font-family="monospace" font-size="11">WORST TRADE</text>
  <text x="632" y="162" fill="#ef4444" font-family="monospace" font-size="20" font-weight="bold">-$187.50</text>
  <text x="632" y="182" fill="#8b949e" font-family="monospace" font-size="12">ETHUSDT Long</text>

  <rect x="800" y="105" width="360" height="100" fill="#1a1f2e" rx="10" stroke="#2d333b" stroke-width="1"/>
  <text x="822" y="132" fill="#8b949e" font-family="monospace" font-size="11">AVERAGE TRADE</text>
  <text x="822" y="162" fill="#22c55e" font-family="monospace" font-size="20" font-weight="bold">+$3.65</text>
  <text x="822" y="182" fill="#8b949e" font-family="monospace" font-size="12">Avg Win: $24.80 · Avg Loss: -$12.40</text>

  <!-- Equity curve -->
  <rect x="40" y="220" width="740" height="200" fill="#111827" rx="10" stroke="#2d333b" stroke-width="1"/>
  <text x="62" y="250" fill="#8b949e" font-family="monospace" font-size="12">EQUITY CURVE</text>
  <polyline points="60,390 100,385 140,375 180,370 220,365 260,355 300,348 340,340 380,335 420,325 460,318 500,310 540,305 580,298 620,290 660,285 700,280 740,275 780,268" fill="none" stroke="#22c55e" stroke-width="2.5"/>
  <rect x="60" y="400" width="720" height="1" fill="#2d333b"/>
  <text x="62" y="412" fill="#8b949e" font-family="monospace" font-size="10">$9,800</text>
  <text x="720" y="412" fill="#8b949e" font-family="monospace" font-size="10">$10,452</text>

  <!-- Recent trades -->
  <rect x="800" y="220" width="360" height="410" fill="#111827" rx="10" stroke="#2d333b" stroke-width="1"/>
  <text x="822" y="250" fill="#e6edf3" font-family="monospace" font-size="12" font-weight="bold">TRADE HISTORY</text>
  <line x1="822" y1="260" x2="1140" y2="260" stroke="#2d333b" stroke-width="1"/>

  <text x="822" y="282" fill="#8b949e" font-family="monospace" font-size="11">DATE</text>
  <text x="910" y="282" fill="#8b949e" font-family="monospace" font-size="11">SYMBOL</text>
  <text x="990" y="282" fill="#8b949e" font-family="monospace" font-size="11">TYPE</text>
  <text x="1070" y="282" fill="#8b949e" font-family="monospace" font-size="11">P&L</text>
  <line x1="822" y1="290" x2="1140" y2="290" stroke="#2d333b" stroke-width="0.5"/>

  <line x1="822" y1="324" x2="1140" y2="324" stroke="#1f2937" stroke-width="0.3"/>
    <text x="822" y="316" fill="#8b949e" font-family="monospace" font-size="10">Jul 07</text>
    <text x="910" y="316" fill="#e6edf3" font-family="monospace" font-size="10">BTCUSDT</text>
    <text x="990" y="316" fill="#22c55e" font-family="monospace" font-size="10">Long</text>
    <text x="1070" y="316" fill="#22c55e" font-family="monospace" font-size="10">+$124.50</text>
<line x1="822" y1="352" x2="1140" y2="352" stroke="#1f2937" stroke-width="0.3"/>
    <text x="822" y="344" fill="#8b949e" font-family="monospace" font-size="10">Jul 06</text>
    <text x="910" y="344" fill="#e6edf3" font-family="monospace" font-size="10">SOLUSDT</text>
    <text x="990" y="344" fill="#22c55e" font-family="monospace" font-size="10">Long</text>
    <text x="1070" y="344" fill="#22c55e" font-family="monospace" font-size="10">+$89.20</text>
<line x1="822" y1="380" x2="1140" y2="380" stroke="#1f2937" stroke-width="0.3"/>
    <text x="822" y="372" fill="#8b949e" font-family="monospace" font-size="10">Jul 05</text>
    <text x="910" y="372" fill="#e6edf3" font-family="monospace" font-size="10">ETHUSDT</text>
    <text x="990" y="372" fill="#22c55e" font-family="monospace" font-size="10">Long</text>
    <text x="1070" y="372" fill="#ef4444" font-family="monospace" font-size="10">-$187.50</text>
<line x1="822" y1="408" x2="1140" y2="408" stroke="#1f2937" stroke-width="0.3"/>
    <text x="822" y="400" fill="#8b949e" font-family="monospace" font-size="10">Jul 04</text>
    <text x="910" y="400" fill="#e6edf3" font-family="monospace" font-size="10">BTCUSDT</text>
    <text x="990" y="400" fill="#ef4444" font-family="monospace" font-size="10">Short</text>
    <text x="1070" y="400" fill="#22c55e" font-family="monospace" font-size="10">+$45.80</text>
<line x1="822" y1="436" x2="1140" y2="436" stroke="#1f2937" stroke-width="0.3"/>
    <text x="822" y="428" fill="#8b949e" font-family="monospace" font-size="10">Jul 03</text>
    <text x="910" y="428" fill="#e6edf3" font-family="monospace" font-size="10">DOGEUSDT</text>
    <text x="990" y="428" fill="#22c55e" font-family="monospace" font-size="10">Long</text>
    <text x="1070" y="428" fill="#ef4444" font-family="monospace" font-size="10">-$32.10</text>
<line x1="822" y1="464" x2="1140" y2="464" stroke="#1f2937" stroke-width="0.3"/>
    <text x="822" y="456" fill="#8b949e" font-family="monospace" font-size="10">Jul 02</text>
    <text x="910" y="456" fill="#e6edf3" font-family="monospace" font-size="10">BNBUSDT</text>
    <text x="990" y="456" fill="#22c55e" font-family="monospace" font-size="10">Long</text>
    <text x="1070" y="456" fill="#22c55e" font-family="monospace" font-size="10">+$12.40</text>
<line x1="822" y1="492" x2="1140" y2="492" stroke="#1f2937" stroke-width="0.3"/>
    <text x="822" y="484" fill="#8b949e" font-family="monospace" font-size="10">Jul 01</text>
    <text x="910" y="484" fill="#e6edf3" font-family="monospace" font-size="10">SOLUSDT</text>
    <text x="990" y="484" fill="#ef4444" font-family="monospace" font-size="10">Short</text>
    <text x="1070" y="484" fill="#22c55e" font-family="monospace" font-size="10">+$56.30</text>
<line x1="822" y1="520" x2="1140" y2="520" stroke="#1f2937" stroke-width="0.3"/>
    <text x="822" y="512" fill="#8b949e" font-family="monospace" font-size="10">Jun 30</text>
    <text x="910" y="512" fill="#e6edf3" font-family="monospace" font-size="10">BTCUSDT</text>
    <text x="990" y="512" fill="#22c55e" font-family="monospace" font-size="10">Long</text>
    <text x="1070" y="512" fill="#ef4444" font-family="monospace" font-size="10">-$78.20</text>
<line x1="822" y1="548" x2="1140" y2="548" stroke="#1f2937" stroke-width="0.3"/>
    <text x="822" y="540" fill="#8b949e" font-family="monospace" font-size="10">Jun 29</text>
    <text x="910" y="540" fill="#e6edf3" font-family="monospace" font-size="10">ADAUSDT</text>
    <text x="990" y="540" fill="#22c55e" font-family="monospace" font-size="10">Long</text>
    <text x="1070" y="540" fill="#22c55e" font-family="monospace" font-size="10">+$33.10</text>
<line x1="822" y1="576" x2="1140" y2="576" stroke="#1f2937" stroke-width="0.3"/>
    <text x="822" y="568" fill="#8b949e" font-family="monospace" font-size="10">Jun 28</text>
    <text x="910" y="568" fill="#e6edf3" font-family="monospace" font-size="10">ETHUSDT</text>
    <text x="990" y="568" fill="#ef4444" font-family="monospace" font-size="10">Short</text>
    <text x="1070" y="568" fill="#22c55e" font-family="monospace" font-size="10">+$22.80</text>

  <rect x="0" y="627" width="1200" height="48" fill="#161b22" opacity="0.9"/>
  <text x="24" y="657" fill="#8b949e" font-family="monospace" font-size="13">XS TRADER v2.0</text>
  <text x="250" y="657" fill="#8b949e" font-family="monospace" font-size="13">Paper Trading Simulator</text>
  <text x="1176" y="657" fill="#8b949e" font-family="monospace" font-size="13" text-anchor="end">$10,000 Virtual Portfolio</text>
  </svg>